<?xml version="1.0" standalone="no"?>
<!DOCTYPE svg PUBLIC "-//W3C//DTD SVG 20010904//EN"
 "http://www.w3.org/TR/2001/REC-SVG-20010904/DTD/svg10.dtd">
<svg version="1.0" xmlns="http://www.w3.org/2000/svg"
 width="581.000000pt" height="581.000000pt" viewBox="0 0 581.000000 581.000000"
 preserveAspectRatio="xMidYMid meet">
<metadata>
Created by potrace 1.14, written by Peter Selinger 2001-2017
</metadata>
<g transform="translate(0.000000,581.000000) scale(0.100000,-0.100000)"
fill="#000000" stroke="none">
<path d="M2889 4967 c-40 -37 -64 -56 -134 -112 -27 -21 -54 -44 -60 -50 -5
-6 -19 -17 -31 -25 -11 -8 -43 -34 -70 -57 -27 -23 -80 -67 -119 -98 -38 -31
-79 -64 -90 -73 -11 -10 -56 -47 -100 -82 -44 -36 -82 -67 -85 -70 -3 -3 -27
-24 -55 -45 -27 -22 -52 -42 -55 -45 -3 -3 -27 -24 -55 -45 -27 -22 -52 -42
-55 -45 -3 -3 -54 -46 -115 -95 -60 -49 -112 -91 -115 -94 -3 -4 -23 -19 -45
-36 -22 -16 -44 -34 -50 -40 -5 -6 -32 -29 -60 -50 -51 -41 -97 -80 -121 -102
-7 -7 -15 -13 -18 -13 -3 0 -14 -8 -24 -17 -10 -10 -30 -27 -43 -38 -13 -11
-49 -40 -79 -65 -30 -25 -57 -47 -60 -50 -3 -3 -50 -41 -105 -85 -55 -44 -102
-82 -105 -85 -5 -5 -100 -83 -134 -110 -10 -8 -27 -23 -38 -32 -10 -10 -23
-18 -28 -18 -6 0 -10 -5 -10 -10 0 -23 -64 -30 -301 -31 -245 -1 -251 -2 -277
-24 -20 -17 -26 -31 -25 -60 2 -74 7 -75 413 -74 74 0 158 -1 185 -1 221 -4
275 -4 275 0 0 3 21 3 47 0 26 -3 92 -3 146 0 54 3 100 3 102 2 2 -2 106 -4
232 -3 280 1 652 0 713 -1 25 -1 56 4 69 11 13 7 127 118 255 247 194 196 236
233 255 229 27 -5 45 -19 110 -88 36 -38 47 -46 56 -35 6 8 31 14 68 14 l57 0
0 -80 0 -81 96 -97 c52 -54 104 -103 115 -109 16 -8 235 -15 274 -8 6 1 14 1
18 0 6 -1 606 -1 677 0 8 0 150 0 315 0 165 0 307 0 315 0 8 1 38 1 65 0 28 0
59 -1 70 -1 90 2 184 2 205 0 29 -2 21 -2 124 0 68 2 82 5 102 25 39 39 29 96
-21 122 -12 6 -116 11 -263 11 l-243 0 -44 37 c-25 20 -50 41 -57 48 -7 7 -33
28 -58 47 -24 19 -52 42 -61 50 -8 8 -32 29 -53 45 -21 17 -43 35 -50 40 -6 6
-49 42 -96 80 -47 39 -90 74 -96 80 -6 5 -30 26 -54 45 -24 19 -48 40 -54 45
-6 6 -33 28 -61 50 -27 21 -54 44 -60 50 -5 6 -32 28 -60 50 -27 22 -61 50
-75 62 -14 11 -83 69 -153 127 -71 58 -135 112 -142 119 -7 6 -28 23 -46 37
-30 22 -72 58 -149 124 -14 11 -47 39 -75 61 -27 22 -61 50 -75 62 -14 12 -68
57 -120 100 -52 43 -97 80 -100 83 -3 3 -27 23 -55 45 -27 21 -52 42 -55 45
-3 3 -30 25 -60 50 -30 25 -60 49 -66 55 -6 5 -28 24 -48 40 -21 17 -50 40
-65 52 -34 29 -39 29 -82 -10z m91 -63 c174 -142 396 -329 398 -336 2 -4 8 -8
13 -8 5 0 17 -8 27 -17 25 -24 56 -50 149 -125 43 -34 80 -65 83 -68 4 -5 194
-162 275 -228 46 -37 140 -117 145 -122 3 -3 25 -21 50 -40 25 -19 47 -37 50
-41 3 -3 31 -27 63 -53 33 -26 69 -56 80 -66 12 -10 56 -47 97 -81 41 -34 77
-66 78 -70 2 -5 10 -9 17 -9 7 0 15 -3 17 -7 2 -5 44 -42 93 -83 50 -41 92
-77 95 -80 3 -3 27 -24 55 -45 27 -22 56 -47 65 -55 9 -8 33 -28 54 -45 68
-54 91 -75 81 -76 -46 -4 -124 5 -148 17 -50 26 -252 157 -255 166 -2 4 -8 8
-14 8 -6 0 -42 21 -82 48 -39 26 -83 54 -97 62 -36 21 -207 130 -306 195 -45
30 -84 51 -86 47 -3 -4 5 -27 16 -52 11 -25 21 -50 23 -57 1 -7 11 -31 23 -55
26 -54 120 -288 116 -288 -2 0 -65 75 -140 168 -75 92 -144 176 -153 187 -9
11 -35 43 -56 70 -22 28 -77 93 -121 145 -45 52 -90 106 -101 119 -10 13 -28
34 -39 46 -11 13 -33 39 -50 60 -87 106 -139 167 -210 243 -34 37 -73 79 -87
94 -18 20 -28 24 -36 16 -7 -7 -8 -18 -3 -27 8 -15 70 -193 76 -216 1 -5 5
-17 8 -25 3 -8 17 -49 31 -90 45 -134 126 -361 132 -373 7 -12 -25 17 -115
103 -26 25 -78 72 -116 105 -39 33 -86 74 -105 92 -19 18 -38 33 -41 33 -4 0
-14 -33 -23 -72 -8 -40 -21 -99 -28 -132 l-13 -59 -167 252 c-93 138 -168 255
-168 261 0 5 -4 10 -8 10 -5 0 -15 11 -22 25 -17 32 -30 32 -55 -2 -11 -14
-25 -31 -30 -37 -6 -6 -42 -49 -80 -96 -38 -47 -85 -103 -105 -126 -50 -58
-109 -128 -175 -209 -91 -113 -127 -156 -170 -205 -22 -26 -52 -62 -67 -81
-29 -37 -46 -58 -113 -134 -24 -27 -56 -67 -72 -87 -32 -42 -47 -49 -34 -15
15 37 101 239 122 284 10 24 19 46 19 50 0 5 7 20 14 35 8 16 11 30 5 33 -8 5
-144 -70 -207 -114 -15 -11 -69 -46 -121 -78 -51 -32 -104 -65 -117 -73 -428
-272 -422 -269 -474 -270 -25 -1 -49 -1 -54 -1 -5 1 16 20 45 43 30 24 59 48
64 53 6 6 33 29 60 50 54 43 67 54 136 111 25 22 104 86 175 144 71 57 131
107 134 110 3 3 52 43 110 90 58 46 107 87 110 90 3 3 19 16 35 29 17 12 48
38 70 56 22 18 87 72 145 119 58 48 115 94 127 105 12 10 41 33 65 52 23 18
45 36 48 39 3 3 30 25 60 50 30 25 57 47 60 50 3 3 28 23 55 45 28 21 52 42
55 45 3 3 28 23 55 45 28 22 55 44 61 50 6 5 29 24 50 42 22 17 66 53 99 80
33 27 92 73 130 103 39 29 73 57 76 62 3 5 14 6 24 2 14 -6 16 -4 10 6 -9 14
5 7 35 -16z"/>
<path d="M2760 3260 c-88 -90 -157 -167 -154 -172 3 -4 9 -6 13 -4 22 14 30
-17 32 -122 2 -64 7 -116 13 -121 6 -5 51 -8 101 -7 l90 1 1 48 c0 26 3 49 5
51 6 6 30 8 76 7 40 -1 41 -2 41 -33 -1 -81 -8 -76 97 -76 63 -1 97 3 102 11
4 7 8 62 9 122 1 61 3 113 3 118 1 4 10 7 21 7 35 0 48 -17 -180 219 l-110
113 -160 -162z m250 -75 c0 -25 -5 -35 -20 -40 -34 -11 -56 2 -55 33 1 40 10
49 45 44 26 -4 30 -8 30 -37z m-112 -2 c-3 -35 -6 -38 -35 -39 -33 -2 -35 1
-35 46 0 11 0 22 1 25 1 3 17 5 37 5 35 0 35 -1 32 -37z m2 -123 c0 -39 -1
-40 -35 -40 -19 0 -36 5 -36 10 -8 66 -6 70 37 70 33 0 34 -1 34 -40z m110 0
c0 -39 -1 -40 -34 -40 -37 0 -47 13 -39 53 5 23 10 27 39 27 33 0 34 -1 34
-40z"/>
<path d="M385 2987 c-21 -7 -34 -27 -41 -64 -1 -7 7 -22 18 -35 l20 -23 930 0
930 0 19 24 c24 29 24 52 1 81 l-18 23 -917 1 c-504 0 -928 -3 -942 -7z"/>
<path d="M2435 2988 c-43 -25 -53 -66 -24 -102 33 -42 100 -31 119 20 10 24 7
35 -17 71 -12 18 -56 24 -78 11z"/>
<path d="M3343 2990 c-22 -9 -40 -51 -34 -80 5 -28 34 -50 66 -50 32 0 75 30
75 53 -1 33 -15 59 -41 72 -32 17 -35 17 -66 5z"/>
<path d="M3614 2991 c-50 -9 -68 -72 -31 -109 17 -16 81 -17 941 -18 508 -1
928 1 933 5 5 3 16 17 25 29 19 28 8 76 -20 87 -17 7 -1811 13 -1848 6z"/>
<path d="M620 2704 c-119 -36 -221 -114 -266 -204 -28 -54 -28 -57 -29 -255
-1 -250 11 -295 99 -387 39 -41 144 -95 206 -107 64 -12 4580 -11 4620 1 14 4
37 17 52 28 15 11 31 20 36 20 21 0 107 99 133 153 27 58 28 62 29 261 0 129
-3 214 -11 232 -6 16 -12 37 -14 47 -12 56 -99 146 -175 180 -109 48 -21 46
-2400 46 -1864 -1 -2242 -3 -2280 -15z m2999 -183 c15 -15 19 -35 20 -97 1
-125 -3 -118 77 -115 38 1 71 7 74 11 3 5 5 44 4 85 -1 61 3 81 18 101 24 30
70 32 98 4 21 -21 21 -12 22 -428 0 -117 -11 -142 -66 -142 -58 1 -69 19 -72
117 -1 49 -2 94 -3 101 -1 15 -138 15 -147 0 -4 -5 -6 -45 -5 -89 1 -67 -2
-82 -19 -99 -23 -23 -68 -26 -96 -6 -18 14 -19 30 -22 275 -2 250 -2 261 18
281 25 25 74 26 99 1z m-2719 -16 c25 -22 27 -77 4 -96 -11 -9 -55 -16 -127
-19 l-111 -5 -2 -32 c-1 -18 3 -36 9 -40 6 -4 45 -8 86 -8 84 -2 101 -14 101
-72 0 -46 -29 -62 -114 -62 -37 0 -71 -3 -74 -6 -4 -3 -7 -24 -8 -46 l-1 -39
41 -1 c23 -1 66 -1 96 0 64 2 104 -12 117 -42 12 -26 -1 -67 -25 -82 -9 -5
-86 -10 -170 -11 -205 -1 -189 -24 -190 278 -1 140 3 244 10 260 14 38 43 44
200 43 118 -2 141 -5 158 -20z m177 19 c26 -7 50 -53 118 -232 26 -67 51 -125
55 -127 5 -3 27 43 50 102 22 60 45 117 50 128 5 11 18 41 30 67 11 26 30 52
41 59 29 15 86 3 99 -22 14 -24 13 -26 -72 -234 -70 -172 -81 -198 -114 -269
-29 -64 -93 -77 -145 -30 -9 8 -42 79 -74 157 -78 195 -94 235 -116 284 -22
49 -24 73 -6 95 19 25 46 32 84 22z m864 -23 c23 -28 24 -60 5 -87 -12 -16
-30 -20 -123 -24 l-108 -5 -3 -37 c-2 -26 1 -38 10 -39 7 0 44 -2 81 -3 75 -3
93 -14 101 -59 4 -22 -1 -35 -19 -53 -21 -21 -33 -24 -90 -23 -36 1 -69 -2
-73 -5 -3 -4 -7 -25 -9 -47 l-2 -39 42 -1 c23 -1 65 -1 92 0 73 0 93 -6 108
-37 17 -32 14 -59 -7 -81 -13 -12 -45 -16 -168 -17 -213 -2 -198 -24 -198 288
1 257 3 269 48 285 12 5 83 8 158 8 130 -1 137 -2 155 -24z m391 1 c80 -36
126 -100 131 -184 4 -59 -10 -101 -50 -144 -34 -37 -39 -50 -25 -56 5 -1 25
-27 45 -56 31 -46 35 -57 26 -80 -13 -33 -26 -42 -66 -42 -29 0 -37 8 -90 85
-53 79 -61 85 -88 83 l-30 -3 0 -66 c0 -79 -13 -99 -65 -99 -70 0 -71 5 -70
286 1 272 4 289 57 296 70 9 183 -1 225 -20z m289 9 c13 -10 42 -51 64 -90 22
-39 43 -71 47 -71 6 0 51 69 52 80 3 21 53 83 73 91 50 19 93 -10 93 -63 0
-27 -5 -37 -89 -169 l-64 -101 2 -105 c1 -97 -1 -106 -23 -128 -26 -26 -65
-24 -92 6 -13 14 -16 39 -16 121 0 87 -3 109 -21 143 -12 22 -25 42 -28 45
-21 18 -111 178 -111 199 0 29 35 61 67 61 12 0 33 -8 46 -19z m800 -10 c22
-27 24 -60 5 -86 -10 -13 -30 -20 -72 -23 l-59 -4 2 -202 c1 -229 -3 -246 -62
-246 -36 0 -64 21 -66 48 -1 9 -3 100 -4 202 -1 102 -3 190 -4 195 0 6 -18 9
-40 7 -41 -4 -100 20 -102 41 -1 6 -2 19 -3 27 -2 24 13 50 34 58 11 4 95 7
186 7 161 -1 167 -2 185 -24z m883 19 c14 -5 77 -74 141 -155 65 -80 120 -145
124 -145 4 0 6 61 6 136 -1 132 -1 136 23 155 33 26 68 24 97 -5 27 -27 25 -1
26 -349 1 -156 -1 -181 -17 -198 -23 -26 -91 -26 -113 0 -9 10 -63 78 -120
150 -57 72 -108 131 -112 131 -5 0 -9 -57 -9 -128 0 -142 -8 -167 -59 -174
-21 -3 -39 2 -57 17 l-27 21 0 254 c0 242 1 255 21 277 22 25 38 28 76 13z
m874 1 c1 -1 4 -1 7 -1 12 1 62 -30 75 -44 7 -9 14 -29 16 -45 6 -49 -39 -69
-104 -47 -56 20 -133 3 -170 -37 -27 -29 -52 -89 -52 -124 0 -47 41 -106 90
-130 54 -28 104 -29 150 -4 49 26 45 45 -10 46 -77 2 -96 15 -106 72 -1 7 7
24 18 38 20 25 23 26 134 24 109 -1 115 -2 134 -26 23 -30 26 -94 8 -156 -18
-61 -91 -126 -161 -144 -49 -13 -150 -11 -198 3 -59 18 -144 96 -173 159 -27
58 -29 167 -5 231 32 85 126 169 202 181 17 3 34 7 37 10 3 3 95 -2 108 -6z
m-1049 -26 c13 -13 16 -56 17 -268 1 -138 -1 -258 -4 -265 -8 -23 -59 -43 -84
-33 -48 18 -49 26 -50 268 0 295 -1 279 23 302 24 22 74 20 98 -4z"/>
<path d="M2189 2378 c-1 -7 -2 -46 -3 -85 l-2 -73 49 0 c38 0 53 5 72 25 55
54 9 145 -74 145 -26 0 -41 -5 -42 -12z"/>
<path d="M1306 1459 c-20 -16 -21 -28 -24 -266 -3 -235 -2 -251 16 -274 28
-34 96 -34 121 0 16 21 18 42 17 144 l-2 119 33 -38 c19 -22 60 -70 91 -109
31 -38 63 -76 70 -83 6 -7 12 -17 12 -20 0 -11 40 -33 67 -38 17 -3 32 4 51
23 l27 28 -2 210 c-1 116 -2 225 -2 243 -2 74 -91 108 -134 51 -16 -23 -19
-43 -19 -145 l1 -119 -27 30 c-15 17 -45 53 -67 80 -81 99 -100 121 -133 152
-36 35 -64 38 -96 12z"/>
<path d="M2068 1466 c-148 -40 -236 -205 -196 -366 19 -75 108 -163 187 -187
144 -41 287 21 352 154 17 37 23 65 23 119 -1 80 -22 134 -79 201 -61 72 -186
106 -287 79z m145 -188 c116 -81 -1 -263 -123 -192 -57 34 -73 125 -31 177 39
47 99 53 154 15z"/>
<path d="M2557 1468 c-17 -6 -30 -20 -34 -36 -10 -40 -9 -453 1 -489 9 -32 45
-56 76 -50 64 13 76 33 74 125 0 34 3 62 7 62 4 0 34 -35 66 -79 64 -87 93
-109 138 -106 44 3 43 3 65 25 25 25 16 52 -45 127 -25 30 -45 59 -45 65 0 5
13 20 28 33 89 74 54 243 -61 303 -41 21 -65 26 -145 27 -54 2 -109 -2 -125
-7z m180 -154 c49 -10 49 -85 1 -103 -40 -15 -63 2 -64 45 -2 62 7 70 63 58z"/>
<path d="M3035 1455 c-31 -30 -31 -30 -1 -113 13 -37 45 -125 71 -197 26 -71
48 -137 50 -146 15 -73 56 -113 105 -104 60 11 63 16 111 152 22 64 32 71 43
30 3 -13 12 -40 21 -60 8 -20 15 -39 15 -42 -1 -15 33 -66 50 -75 26 -14 69
-5 92 18 11 10 46 92 79 183 32 90 61 169 63 174 2 6 4 13 5 17 1 4 8 23 16
42 8 20 15 55 15 79 0 49 -23 69 -73 65 -42 -4 -60 -31 -112 -168 -27 -69 -51
-129 -55 -133 -4 -5 -20 22 -35 60 -16 37 -32 73 -35 78 -4 6 -10 22 -14 38
-6 24 -11 27 -52 27 -44 0 -45 -1 -65 -47 -12 -27 -29 -67 -40 -90 -10 -24
-19 -47 -19 -53 0 -26 -20 -5 -36 38 -76 209 -90 239 -118 246 -38 10 -57 6
-81 -19z"/>
<path d="M4206 1455 c-31 -34 -29 -41 64 -175 40 -57 76 -114 81 -127 4 -12 8
-62 7 -111 0 -49 2 -98 6 -109 13 -41 89 -51 127 -17 17 15 19 32 19 130 l0
113 75 110 c90 132 96 151 61 185 -50 51 -103 30 -172 -70 l-39 -56 -30 37
c-76 95 -90 107 -133 112 -35 4 -45 1 -66 -22z"/>
<path d="M3949 1448 c-31 -10 -27 -4 -119 -233 -40 -99 -81 -200 -91 -224 -24
-54 -24 -73 -1 -100 20 -25 70 -31 105 -12 12 6 30 31 39 54 l18 42 69 0 c39
0 72 -3 74 -5 3 -3 14 -24 26 -47 24 -47 67 -67 111 -51 33 12 58 40 52 58 -5
17 -167 418 -188 466 -22 50 -52 67 -95 52z m57 -356 c-2 -1 -17 -4 -35 -6
-29 -3 -32 -1 -26 18 3 11 8 29 10 39 9 40 19 39 35 -4 10 -24 17 -45 16 -47z"/>
<path d="M994 1215 c-54 -23 -65 -88 -20 -130 45 -43 110 -21 122 42 13 67
-41 114 -102 88z"/>
<path d="M4903 1218 c-52 -14 -74 -72 -45 -120 21 -37 55 -45 98 -25 86 42 39
171 -53 145z"/>
</g>
</svg>
